<?xml version="1.0" encoding="UTF-8" standalone="no"?>
<svg
   viewBox="0 0 80 80"
   x="0px"
   y="0px"
   version="1.1"
   id="svg10"
   sodipodi:docname="rumahpetani.svg"
   width="80"
   height="80"
   inkscape:version="1.2.2 (732a01da63, 2022-12-09)"
   xmlns:inkscape="http://www.inkscape.org/namespaces/inkscape"
   xmlns:sodipodi="http://sodipodi.sourceforge.net/DTD/sodipodi-0.dtd"
   xmlns="http://www.w3.org/2000/svg"
   xmlns:svg="http://www.w3.org/2000/svg">
  <sodipodi:namedview
     id="namedview4421"
     pagecolor="#505050"
     bordercolor="#eeeeee"
     borderopacity="1"
     inkscape:showpageshadow="0"
     inkscape:pageopacity="0"
     inkscape:pagecheckerboard="0"
     inkscape:deskcolor="#505050"
     showgrid="false"
     inkscape:zoom="1.8756036"
     inkscape:cx="153.81715"
     inkscape:cy="45.851907"
     inkscape:window-width="1366"
     inkscape:window-height="705"
     inkscape:window-x="-8"
     inkscape:window-y="-8"
     inkscape:window-maximized="1"
     inkscape:current-layer="svg10" />
  <defs
     id="defs14" />
  <g
     id="g4"
     transform="matrix(1.3333333,0,0,1.3741486,-2.6666656,-5.197213)"
     inkscape:export-filename="..\..\..\..\..\..\Users\asus\Desktop\rumahpetani.png"
     inkscape:export-xdpi="96"
     inkscape:export-ydpi="96">
    <path
       d="m 34.224,28.061 a 1,1 0 0 1 0.343,-1.365 5.316,5.316 0 0 1 5.272,0.006 1,1 0 1 1 -1.049,1.7 3.294,3.294 0 0 0 -3.2,0.01 1,1 0 0 1 -1.366,-0.351 z m -5.307,0.493 a 1,1 0 0 0 0.516,-1.858 5.314,5.314 0 0 0 -5.272,0.006 1,1 0 1 0 1.049,1.7 3.3,3.3 0 0 1 3.2,0.01 1,1 0 0 0 0.507,0.142 z m 6.808,6.813 A 1,1 0 0 0 34.35,35.035 c -2.691,1.644 -4.469,0.181 -4.56,0.1 a 1.000117,1.000117 0 0 0 -1.33,1.494 5.359,5.359 0 0 0 3.4,1.193 6.716,6.716 0 0 0 3.528,-1.084 1,1 0 0 0 0.337,-1.371 z M 62,61 a 1,1 0 0 1 -1,1 H 3 A 1,1 0 0 1 2,61 C 2,46.7 22.748,45.7 22.958,45.692 a 0.935,0.935 0 0 1 0.129,0.02 13.385,13.385 0 0 1 0.838,-2.453 c -3.732,-2.479 -5.149,-6.648 -5.666,-9.977 -0.015,0 -0.031,0 -0.046,0 a 1,1 0 0 1 -0.985,-0.836 26.1,26.1 0 0 1 -0.282,-3.7 0.994,0.994 0 0 1 0.952,-0.99 c 0,-1.582 0.061,-2.931 0.115,-3.76 H 7 A 1,1 0 0 1 6.411,22.188 l 25,-18.214 a 1,1 0 0 1 1.178,0 l 25,18.214 A 1,1 0 0 1 57,24 H 45.987 c 0.054,0.829 0.118,2.178 0.115,3.76 a 0.994,0.994 0 0 1 0.952,0.99 26.1,26.1 0 0 1 -0.282,3.7 1,1 0 0 1 -0.985,0.836 c -0.015,0 -0.031,0 -0.046,0 -0.517,3.329 -1.935,7.5 -5.667,9.976 a 13.351,13.351 0 0 1 0.84,2.454 0.9,0.9 0 0 1 0.128,-0.02 C 41.252,45.7 62,46.7 62,61 Z M 44.929,22 33.494,13.668 30.679,15.6 39.636,22 Z m 9,0 -15.8,-11.51 -2.888,1.979 L 48.326,22 Z m -29.215,-10.669 4.234,3.028 2.831,-1.94 -1.209,-0.88 a 1.0002966,1.0002966 0 0 1 1.178,-1.617 l 1.781,1.3 L 36.417,9.243 32,6.023 Z m 2.477,4.231 -4.181,-2.989 -2.359,1.718 4.108,2.938 z M 10.07,22 H 36.2 l -7.273,-5.2 -5.562,3.811 a 1.0002076,1.0002076 0 0 1 -1.131,-1.65 L 23,18.432 18.99,15.565 c -0.015,-0.01 -0.022,-0.027 -0.037,-0.039 z M 31.9,43.393 H 32 a 0.785,0.785 0 0 1 0.1,0 c 8.877,0 11.336,-6.36 11.833,-11.706 A 51.83,51.83 0 0 0 43.981,24 H 20.019 a 51.975,51.975 0 0 0 0.051,7.687 c 0.497,5.346 2.957,11.705 11.83,11.706 z M 25.7,44.2 c -0.52,1.182 -1.541,4.082 -0.394,6.632 0.946,2.1 3.205,3.58 6.7,4.394 3.491,-0.814 5.75,-2.289 6.7,-4.394 1.148,-2.551 0.125,-5.451 -0.395,-6.632 a 15.239,15.239 0 0 1 -6.2,1.193 h -0.2 A 15.244,15.244 0 0 1 25.7,44.2 Z M 59.958,60 C 59.035,49.3 43.358,47.853 41.206,47.7 a 8.432,8.432 0 0 1 -0.68,3.934 c -1.237,2.764 -4.033,4.647 -8.309,5.595 a 0.978,0.978 0 0 1 -0.213,0.023 H 32 A 0.978,0.978 0 0 1 31.787,57.229 C 27.511,56.281 24.715,54.398 23.478,51.634 A 8.432,8.432 0 0 1 22.798,47.7 C 20.639,47.853 4.965,49.3 4.042,60 H 14 v -4 a 1,1 0 0 1 2,0 v 4 h 32 v -4 a 1,1 0 0 1 2,0 v 4 z"
       id="path2" />
  </g>
  <path
     style="fill:#808000;stroke:#000000;stroke-width:0;stroke-linecap:round"
     d="m 10.964143,24.947685 c 0.261776,-0.239425 11.439684,-8.578316 11.561512,-8.625066 0.08287,-0.0318 1.225497,0.744338 2.75584,1.871931 l 2.61427,1.926257 -0.623411,0.471407 c -0.716283,0.541636 -0.876435,0.799537 -0.878506,1.414693 -0.0035,1.03122 1.03025,1.722974 1.901472,1.272448 0.156361,-0.08086 1.920002,-1.302447 3.919204,-2.714644 1.999203,-1.412197 3.659522,-2.567631 3.6896,-2.567631 0.07262,0 9.490746,6.942853 9.490746,6.996387 0,0.02287 -7.768404,0.04158 -17.263121,0.04158 -9.778358,0 -17.221709,-0.03788 -17.167606,-0.08736 z"
     id="path1022" />
  <path
     style="fill:#808000;stroke:#000000;stroke-width:0;stroke-linecap:round"
     d="m 27.657284,16.421206 c -1.475374,-1.085335 -2.646318,-2.005331 -2.602098,-2.044435 0.04422,-0.0391 0.726909,-0.555155 1.517086,-1.146781 l 1.436684,-1.075684 0.523891,0.382053 c 2.502734,1.825141 4.851482,3.576884 4.871082,3.63295 0.01897,0.05427 -2.441276,1.854364 -2.941454,2.152181 -0.07526,0.04481 -1.159823,-0.689896 -2.805191,-1.900284 z"
     id="path1024" />
  <path
     style="fill:#808000;stroke:#000000;stroke-width:0;stroke-linecap:round"
     d="M 33.329788,12.549742 C 31.919682,11.50565 30.677634,10.592127 30.569682,10.519692 30.389891,10.399053 30.77837,10.08413 35.194681,6.7704118 l 4.821276,-3.6175788 2.865406,2.1503178 c 1.575973,1.1826747 2.84978,2.1812505 2.830683,2.2190571 -0.0191,0.037807 -0.852426,0.645155 -1.851842,1.3496631 L 42.043083,10.152795 41.733265,9.9198675 C 39.556925,8.2836518 39.457084,8.2191195 39.026936,8.1706357 38.20417,8.0778979 37.53581,8.6725727 37.53581,9.497369 c 0,0.671854 0.189516,0.947297 1.14351,1.661974 0.480431,0.35991 0.875048,0.677005 0.876928,0.704654 0.0031,0.04624 -3.286441,2.386274 -3.547763,2.52369 -0.06318,0.03322 -1.26859,-0.793854 -2.678697,-1.837945 z"
     id="path1026" />
  <path
     style="fill:#808000;stroke:#000000;stroke-width:0;stroke-linecap:round"
     d="m 44.54026,20.805159 c -3.152002,-2.32434 -5.834389,-4.303574 -5.960858,-4.398299 -0.22948,-0.171879 -0.226271,-0.174829 1.58892,-1.46087 l 1.818865,-1.288643 7.535298,5.650817 c 4.144413,3.107949 7.535298,5.667932 7.535298,5.688849 0,0.02092 -1.526987,0.03717 -3.393305,0.03612 l -3.393304,-0.0019 -5.730914,-4.226071 z"
     id="path1028" />
  <path
     style="fill:#808000;stroke:#000000;stroke-width:0;stroke-linecap:round"
     d="m 53.16642,18.518363 c -4.766918,-3.576954 -8.669218,-6.532593 -8.671777,-6.568087 -0.0026,-0.0355 0.82239,-0.648221 1.833222,-1.361614 l 1.837876,-1.297078 10.49518,7.87173 10.49518,7.871731 -3.661279,-0.0066 -3.661278,-0.0066 z"
     id="path1030" />
  <path
     style="fill:#ffffff;stroke:#000000;stroke-width:0;stroke-linecap:round"
     d="M 37.703381,54.275134 C 33.2663,53.827987 29.602163,51.761649 27.378515,48.452574 25.472458,45.616114 24.416234,42.071341 24.070759,37.351482 23.938485,35.544361 23.906323,29.823275 24.021727,28.629434 l 0.07532,-0.779204 h 15.91222 15.912219 l 0.06492,0.980288 c 0.100616,1.519405 0.07759,6.435207 -0.03852,8.221053 -0.262398,4.036156 -0.977926,7.022327 -2.317792,9.673031 -1.990018,3.936922 -5.202634,6.384411 -9.535776,7.264706 -1.892817,0.384532 -4.329903,0.493528 -6.390939,0.285826 z m 3.916164,-7.693255 c 0.832209,-0.186491 2.159877,-0.73301 2.71828,-1.118947 0.520577,-0.359794 0.855961,-0.866289 0.855961,-1.292668 0,-0.817223 -0.576001,-1.438638 -1.334195,-1.43939 -0.248459,-2.01e-4 -0.684762,0.153165 -1.266442,0.445302 -0.48807,0.245123 -1.161046,0.516588 -1.495503,0.603254 -1.349538,0.349701 -2.775521,0.113021 -3.885412,-0.644887 -0.495662,-0.338472 -0.672991,-0.404045 -1.092659,-0.404045 -0.447878,0 -0.542337,0.04137 -0.891311,0.390341 -0.352705,0.352705 -0.39034,0.440432 -0.39034,0.909874 0,0.700478 0.175857,0.995443 0.893682,1.498969 1.715547,1.203388 3.661469,1.551132 5.887939,1.052197 z m -10.44234,-12.7926 c 1.221156,-0.605415 2.388169,-0.609704 3.745955,-0.01377 0.810046,0.355531 1.139863,0.380939 1.617784,0.124628 0.685243,-0.367501 0.9262,-1.378544 0.483776,-2.029904 -0.422452,-0.621956 -1.952476,-1.226381 -3.457176,-1.365733 -1.62591,-0.150577 -3.973931,0.584209 -4.517417,1.413673 -0.256736,0.391829 -0.293363,0.977139 -0.0882,1.409484 0.375657,0.791637 1.202208,0.963874 2.215281,0.46162 z m 13.831921,9.86e-4 c 1.337129,-0.606284 2.499419,-0.609848 3.777876,-0.01159 0.882703,0.413067 1.406349,0.411497 1.881441,-0.0056 0.581827,-0.510851 0.661983,-1.269562 0.207419,-1.963313 -0.08599,-0.131233 -0.415573,-0.369331 -0.732412,-0.529106 -1.906067,-0.961186 -4.004801,-1.039402 -5.967344,-0.222393 -1.030846,0.429142 -1.321425,0.745808 -1.369323,1.49225 -0.04438,0.691643 0.195586,1.162898 0.704898,1.38431 0.481893,0.209493 0.780168,0.180705 1.497445,-0.144524 z"
     id="path1101" />
  <path
     style="fill:#ffffff;stroke:#000000;stroke-width:0;stroke-linecap:round"
     d="m 39.81477,70.602014 c -0.609175,-0.122563 -2.843541,-0.910268 -3.656817,-1.289177 -4.246847,-1.978629 -6.176772,-5.262557 -5.637879,-9.59332 0.128585,-1.033354 0.499046,-2.523702 0.85418,-3.436321 l 0.262295,-0.674044 0.519857,0.207765 c 2.44443,0.97694 4.786655,1.391679 7.859449,1.391679 2.866456,0 5.294584,-0.403253 7.451039,-1.237437 0.613448,-0.237301 0.914345,-0.310369 0.958889,-0.232851 0.194412,0.33833 0.716202,2.019929 0.902709,2.909209 0.284073,1.354476 0.307118,3.305131 0.05249,4.442807 -0.231604,1.034795 -1.023657,2.657018 -1.650355,3.380133 -1.028101,1.186273 -2.096041,1.982643 -3.693075,2.75395 -1.413698,0.682763 -3.802685,1.462127 -4.222779,1.377607 z"
     id="path1103" />
  <path
     style="fill:#666666;stroke:#000000;stroke-width:0;stroke-linecap:round"
     d="m 2.8188291,76.738947 c 0.3297676,-2.377711 1.050328,-4.30468 2.3372848,-6.250519 0.6349597,-0.96004 2.227352,-2.659857 3.3005186,-3.523175 2.5918815,-2.085062 6.3422045,-3.872778 10.5341885,-5.021473 2.467487,-0.676144 5.656103,-1.267926 7.929393,-1.471631 l 0.779203,-0.06982 v 1.026578 c 0,1.886748 0.593182,4.020833 1.569253,5.645683 0.613378,1.021082 2.065273,2.564875 3.137792,3.336398 0.972247,0.699393 2.543922,1.534957 3.798798,2.01959 1.181482,0.456289 3.34677,1.065882 3.786036,1.065882 0.470857,0 2.647614,-0.607826 3.799512,-1.060955 2.733766,-1.075399 4.969566,-2.648314 6.328097,-4.451901 1.370911,-1.820024 2.213387,-4.36221 2.213387,-6.67893 v -0.904702 l 0.728932,0.06826 c 6.033875,0.565053 12.445623,2.531263 16.413539,5.033333 4.489867,2.8312 7.088367,6.570463 7.669377,11.036299 l 0.08829,0.67866 h -6.568343 -6.568344 l -0.0024,-2.689507 c -0.0013,-1.47923 -0.04417,-2.870484 -0.09523,-3.091678 -0.05878,-0.254662 -0.223305,-0.522018 -0.448565,-0.728932 -0.297591,-0.273352 -0.434039,-0.326701 -0.834788,-0.326386 -0.302967,2.01e-4 -0.601386,0.07496 -0.811867,0.203285 -0.586488,0.357576 -0.622335,0.574409 -0.622335,3.764532 v 2.868686 H 40.02144 18.762317 l -0.03072,-2.940863 c -0.0279,-2.671185 -0.0481,-2.969579 -0.220297,-3.253999 -0.253747,-0.419128 -0.657546,-0.642017 -1.163115,-0.642017 -0.571026,0 -0.970195,0.23151 -1.210152,0.701863 -0.188427,0.369348 -0.202071,0.589836 -0.202071,3.265554 v 2.869462 H 9.3442779 2.7525935 Z"
     id="path1105" />
  <text
     xml:space="preserve"
     style="font-size:52.8833px;line-height:0.8;font-family:'Adobe Gothic Std';-inkscape-font-specification:'Adobe Gothic Std, Normal';fill:#000000;stroke:#000000;stroke-width:0;stroke-linecap:round"
     x="82.324631"
     y="33.983463"
     id="text1230"
     transform="scale(1.0072337,0.99281825)"><tspan
       sodipodi:role="line"
       id="tspan1228"
       x="82.324631"
       y="33.983463"
       style="font-style:normal;font-variant:normal;font-weight:bold;font-stretch:normal;font-size:48.8019px;font-family:Montserrat;-inkscape-font-specification:'Montserrat Bold';fill:#000000;stroke-width:0">RUMAH</tspan><tspan
       style="font-style:normal;font-variant:normal;font-weight:bold;font-stretch:normal;font-family:Montserrat;-inkscape-font-specification:'Montserrat Bold';fill:#333333;stroke-width:0"
       sodipodi:role="line"
       id="tspan1822"
       x="82.324631"
       y="80.400879"><tspan
   id="tspan1826"
   style="font-style:normal;font-variant:normal;font-weight:bold;font-stretch:normal;font-family:Montserrat;-inkscape-font-specification:'Montserrat Bold';fill:#000000;stroke-width:0">PETA</tspan>ni</tspan><tspan
       sodipodi:role="line"
       x="82.324631"
       y="127.25053"
       style="font-style:normal;font-variant:normal;font-weight:bold;font-stretch:normal;font-size:38.905px;font-family:Montserrat;-inkscape-font-specification:'Montserrat Bold';fill:#333333;stroke-width:0"
       id="tspan1774" /></text>
  <rect
     style="fill:none;stroke:#000000;stroke-width:2.62288;stroke-linecap:round;stroke-dasharray:none"
     id="rect1940"
     width="77.377121"
     height="77.377129"
     x="1.3114395"
     y="1.3114357" />
</svg>
