<?xml version="1.0" encoding="UTF-8" standalone="no"?>
<!-- Created with Inkscape (http://www.inkscape.org/) -->

<svg
   width="180mm"
   height="180mm"
   viewBox="0 0 180 180"
   version="1.1"
   id="svg5"
   xml:space="preserve"
   xmlns:inkscape="http://www.inkscape.org/namespaces/inkscape"
   xmlns:sodipodi="http://sodipodi.sourceforge.net/DTD/sodipodi-0.dtd"
   xmlns="http://www.w3.org/2000/svg"
   xmlns:svg="http://www.w3.org/2000/svg"><sodipodi:namedview
     id="namedview7"
     pagecolor="#505050"
     bordercolor="#eeeeee"
     borderopacity="1"
     inkscape:showpageshadow="0"
     inkscape:pageopacity="0"
     inkscape:pagecheckerboard="0"
     inkscape:deskcolor="#505050"
     inkscape:document-units="mm"
     showgrid="false" /><defs
     id="defs2" /><g
     inkscape:label="Layer 1"
     inkscape:groupmode="layer"
     id="layer1"><path
       style="fill:#000000;stroke-width:0.264583"
       d="m 22.241169,177.69591 c -9.19615,-1.74669 -16.1754211,-7.34549 -19.3194011,-15.4981 -1.15085,-2.98425 -1.61412,-5.49745 -1.62759,-8.82952 -0.0126,-3.11191 0.26836,-5.00204 1.15722,-7.78541 2.14237,-6.70864 7.46651,-12.45505 14.0238511,-15.13611 l 2.04437,-0.83587 0.27373,-1.34057 c 0.50195,-2.4583 7.15202,-38.882894 7.15018,-39.163904 -0.001,-0.15216 -0.39693,-0.54566 -0.87985,-0.87443 -1.21364,-0.82624 -4.21363,-3.89236 -5.36929,-5.48765 -1.45405,-2.00718 -3.19179,-5.8409 -3.84496,-8.48256 -0.819,-3.31236 -0.8207,-8.29091 -0.004,-11.59323 1.17855,-4.76516 3.49629,-8.67132 7.25067,-12.219773 3.85119,-3.63995 8.74716,-5.88129 14.20193,-6.50156 5.97885,-0.67987 12.47886,1.12306 17.37905,4.82049 l 1.612,1.21633 25.009999,-11.50641 25.010002,-11.506407 0.17789,-2.143649 c 0.74296,-8.952743 6.12168,-16.641219 14.27834,-20.409828 3.22126,-1.488314 5.47126,-2.010779 9.29353,-2.158017 5.61429,-0.21627 10.05785,0.988657 14.57371,3.951844 10.10439,6.630236 13.93914,19.946443 8.86331,30.777977 -1.49612,3.19263 -2.76635,4.99628 -5.23687,7.43602 l -2.18976,2.16247 6.94377,26.229603 6.94376,26.22959 1.93736,0.65119 c 10.8947,3.661944 17.79723,14.262824 16.6974,25.643834 -1.07226,11.09574 -9.15743,19.89763 -20.22227,22.01488 -2.8052,0.53677 -7.67453,0.33794 -10.58333,-0.43216 -4.25424,-1.12631 -8.69657,-3.78016 -11.74177,-7.01455 l -1.42301,-1.51143 -42.3105,10.27268 -42.310501,10.27266 -0.74179,2.15269 c -2.68476,7.79117 -8.64863,13.48454 -16.62391,15.86992 -1.93093,0.57753 -2.9494,0.70844 -6.02769,0.77477 -2.03729,0.0439 -4.00182,0.0233 -4.36563,-0.0458 z m 8.47066,-10.73427 c 3.53446,-1.29269 6.58824,-3.99358 8.18681,-7.24074 2.8074,-5.70263 1.74671,-12.0989 -2.7661,-16.68057 -4.59543,-4.66555 -11.22146,-5.66033 -17.11677,-2.56979 -3.08631,1.61797 -5.50953,4.4213 -6.82059,7.89047 -0.742401,1.96444 -1.002301,5.69842 -0.548701,7.88304 1.075711,5.18083 5.585621,9.84491 10.801501,11.17074 2.21083,0.56198 6.06637,0.35056 8.26385,-0.45315 z m 58.337771,-34.30822 40.21553,-9.75446 0.1971,-1.95335 c 0.43853,-4.34598 2.10757,-8.84157 4.55686,-12.27394 1.60652,-2.25133 4.96347,-5.32351 7.37027,-6.74503 1.10872,-0.65484 2.01926,-1.26759 2.02342,-1.36166 0.007,-0.15855 -12.52827,-47.681537 -12.84858,-48.710737 -0.10364,-0.33301 -0.42262,-0.46303 -1.13601,-0.46303 -2.49096,0 -6.37726,-1.06632 -9.42347,-2.5856 -2.5499,-1.27176 -3.88419,-2.22875 -6.22348,-4.4637 l -2.00662,-1.91712 -23.68917,10.899363 -23.689151,10.89936 0.0184,3.70416 c 0.0237,4.77509 -0.63422,7.77391 -2.55415,11.64167 -1.64005,3.30395 -5.09604,7.24341 -8.2204,9.37041 -2.83135,1.92752 -8.40216,3.98292 -10.81201,3.98919 -0.39159,0.001 -0.7844,0.11902 -0.8729,0.26222 -0.19779,0.32003 -6.74641,35.903554 -6.7482,36.667994 -0.001,0.40076 0.34757,0.70581 1.29612,1.1345 4.28617,1.93711 9.20501,6.58527 11.02894,10.42204 0.25941,0.5457 0.65849,0.99218 0.88682,0.99218 0.22834,0 18.51215,-4.3895 40.630681,-9.75446 z m 4.60914,-15.51289 C 82.643719,114.9448 74.608059,105.82335 73.686859,94.470016 c -0.76456,-9.42287 4.81169,-19.21562 13.377221,-23.49246 4.25712,-2.12561 7.34148,-2.77126 12.36706,-2.58883 4.09956,0.14883 6.49186,0.75925 10.12254,2.58291 8.58239,4.31085 14.14172,14.07636 13.37722,23.49838 -0.93148,11.479924 -8.99443,20.548994 -20.1704,22.687314 -2.41305,0.46169 -6.74145,0.4537 -9.10176,-0.0168 z m 7.76092,-10.0457 c 3.80871,-0.8071 7.64368,-3.64364 9.53725,-7.0542 1.31206,-2.363214 1.85412,-4.441784 1.85412,-7.109824 0,-4.02947 -1.42193,-7.41887 -4.3451,-10.35728 -2.73672,-2.751 -6.23266,-4.1948 -10.15705,-4.1948 -6.52847,0 -12.1813,4.31433 -14.040074,10.71562 -0.595207,2.04979 -0.592543,5.60845 0.0058,7.69218 2.126504,7.406074 9.609524,11.905164 17.145094,10.308304 z m 55.37969,30.26175 c 4.15905,-0.76507 8.23264,-3.8436 10.14699,-7.66837 0.57084,-1.14049 1.18112,-2.76348 1.35619,-3.60666 0.43469,-2.09354 0.18291,-5.88969 -0.52285,-7.88304 -1.90146,-5.37051 -6.97685,-9.22077 -12.64044,-9.58922 -4.46619,-0.29055 -8.22995,1.13221 -11.34978,4.29038 -5.75519,5.82592 -5.74461,14.61415 0.0246,20.3833 3.52555,3.52556 8.12351,4.96797 12.98535,4.07361 z M 42.398469,82.760156 c 5.55322,-0.99031 10.32634,-5.51186 11.60779,-10.99602 1.75171,-7.49667 -2.84312,-15.12552 -10.44025,-17.33407 -1.99415,-0.57971 -5.4648,-0.57919 -7.47393,0.001 -5.20152,1.50241 -9.24402,5.6581 -10.42642,10.71835 -0.41314,1.76807 -0.41072,4.95135 0.005,6.74673 1.2545,5.41631 6.39648,10.15385 11.89975,10.96381 2.122,0.31232 2.56796,0.30309 4.82793,-0.0999 z M 135.87972,40.542933 c 4.74951,-1.79078 8.36147,-5.867807 9.39946,-10.609696 0.46079,-2.105033 0.21729,-6.069103 -0.49342,-8.032706 -3.60241,-9.952994 -16.4241,-12.874823 -23.855,-5.436118 -4.59199,4.59681 -5.67386,10.815995 -2.89585,16.646959 1.82631,3.833391 5.25314,6.652291 9.51043,7.823271 2.12133,0.58348 6.26443,0.38876 8.33438,-0.39171 z"
       id="path1582" /></g></svg>
